<?xml version="1.0" encoding="utf-8"?>
<!-- Generator: Adobe Illustrator 19.0.0, SVG Export Plug-In . SVG Version: 6.00 Build 0)  -->
<svg version="1.1" xmlns="http://www.w3.org/2000/svg" xmlns:xlink="http://www.w3.org/1999/xlink" x="0px" y="0px"
	 viewBox="0 0 173.1 90.6" style="enable-background:new 0 0 173.1 90.6;" xml:space="preserve">
<style type="text/css">
	.st0{fill:#656979;}
	.st1{fill:#E94667;}
	.st2{display:none;}
	.st3{display:inline;fill:#E82B88;}
</style>
<g id="Ebene_1">
	<g id="XMLID_38_">
		<path id="XMLID_39_" class="st0" d="M53,38.4v3.3H35.6v1.5h13.8v3.1H16.8v-3.1h13.4v-1.5h-17v-3.3h17v-2.2h5.4v2.2H53z M35.6,73.7
			h17.1v3.6H13.5v-3.6h16.7v-1.4H17.9v-3.1h12.3v-1.3c-7.7,0.2-9,0.3-10,0.6c-0.2-0.7-0.7-2.4-1.1-3.3c0.7-0.1,1.5-0.3,2.3-0.6
			c0.5-0.2,1.7-0.6,3.1-1.3h-6.1v-0.8h-4.7v-6.7h38.8v6.7h-5v-3.4h-29v1.3h28.8v2.8H44c2,1.2,3.8,2.5,5,3.5l-2.9,2.4h2.7v3.1H35.6
			V73.7z M48,47.6v6.8H18.4v-6.8H48z M42.7,50.2H23.3v1.6h19.3V50.2z M30.3,63.2c-1,0.6-2,1.2-3,1.7l12.3-0.2
			c-0.9-0.5-1.7-0.9-2.4-1.3l0.2-0.2H30.3z M35.6,69.1h10.1c-0.5-0.5-1.3-1.1-2-1.7l-8.1,0.2V69.1z"/>
		<path id="XMLID_46_" class="st0" d="M76.6,65.3l0.9,4.8c-6.3,2.7-13.3,5.5-18.6,7.6l-2.4-5.5h0c3.1-0.9,7.4-2.4,12-4v-16H58.1
			v-5.4h10.4v-9.9h5.6v29.2L76.6,65.3z M91.3,71.7c1.7,0,1.9-2.1,2.2-10.2c1.3,1,3.6,2.2,5.1,2.5c-0.5,9.3-1.8,12.9-6.8,12.9h-5.4
			c-4.9,0-6.4-1.9-6.4-8.1V37h5.6v9.8h11.7v5.3H85.6v16.7c0,2.4,0.2,2.8,1.7,2.8H91.3z"/>
		<path id="XMLID_49_" class="st0" d="M125.7,47.5v5h14.5v15.2c0,2.7-0.5,4.1-2.4,4.9c-1.8,0.9-4.5,0.9-7.9,0.9
			c-0.2-1.6-1-3.8-1.8-5.3c2.2,0.1,4.9,0.1,5.6,0.1c0.8,0,1-0.2,1-0.8v-9.9h-8.9V78h-5.6V57.7h-8.3v15.8h-5.4v-21h13.7v-5h-17.5
			v-5.2h18c-0.7-1.6-1.5-3.5-2.3-4.9l5.3-1.7c1.1,2.1,2.6,4.8,3.4,6.6h16.6v5.2H125.7z"/>
	</g>
	<g id="XMLID_8_">
		<path id="XMLID_9_" class="st0" d="M13.9,28.4l2.2-2.6c1.1,1,2.6,1.6,3.9,1.6c1.4,0,2.1-0.5,2.1-1.4c0-0.9-0.9-1.2-2.3-1.8l-2-0.9
			c-1.7-0.7-3.2-2.1-3.2-4.4c0-2.7,2.4-4.8,5.8-4.8c1.8,0,3.8,0.7,5.2,2.1l-1.9,2.4c-1.1-0.8-2-1.2-3.3-1.2c-1.2,0-1.9,0.5-1.9,1.3
			c0,0.9,1,1.2,2.4,1.8l2,0.8c2,0.8,3.2,2.1,3.2,4.4c0,2.7-2.2,5-6.1,5C17.8,30.7,15.5,29.9,13.9,28.4z"/>
		<path id="XMLID_12_" class="st0" d="M28.8,22.3c0-5.2,3-8.2,7.3-8.2c4.4,0,7.3,3,7.3,8.2c0,5.2-3,8.4-7.3,8.4
			C31.7,30.7,28.8,27.6,28.8,22.3z M39.5,22.3c0-3.1-1.3-4.9-3.4-4.9s-3.4,1.8-3.4,4.9c0,3.1,1.3,5.1,3.4,5.1S39.5,25.4,39.5,22.3z"
			/>
		<path id="XMLID_18_" class="st0" d="M46.7,22.9v-8.5h3.8v8.9c0,3,0.9,4.1,2.7,4.1c1.7,0,2.7-1.1,2.7-4.1v-8.9h3.7v8.5
			c0,5.4-2.1,7.8-6.4,7.8C49,30.7,46.7,28.3,46.7,22.9z"/>
		<path id="XMLID_26_" class="st0" d="M63.7,14.4h3.9l4,7.7l1.6,3.5h0.1c-0.2-1.7-0.5-4-0.5-5.9v-5.3h3.7v16h-3.9l-4-7.7l-1.6-3.5
			h-0.1c0.2,1.8,0.5,4,0.5,5.9v5.3h-3.7V14.4z"/>
		<path id="XMLID_28_" class="st0" d="M80.5,14.4h4.6c4.9,0,8.1,2.3,8.1,7.9s-3.2,8.1-7.9,8.1h-4.8V14.4z M84.9,27.3
			c2.6,0,4.4-1.2,4.4-5s-1.8-4.9-4.4-4.9h-0.5v9.8H84.9z"/>
		<path id="XMLID_31_" class="st0" d="M95.6,28.4l2.2-2.6c1.1,1,2.6,1.6,3.9,1.6c1.4,0,2.1-0.5,2.1-1.4c0-0.9-0.9-1.2-2.3-1.8
			l-2-0.9c-1.7-0.7-3.2-2.1-3.2-4.4c0-2.7,2.4-4.8,5.8-4.8c1.8,0,3.8,0.7,5.2,2.1l-1.9,2.4c-1.1-0.8-2-1.2-3.3-1.2
			c-1.2,0-1.9,0.5-1.9,1.3c0,0.9,1,1.2,2.4,1.8l2,0.8c2,0.8,3.2,2.1,3.2,4.4c0,2.7-2.2,5-6.1,5C99.5,30.7,97.2,29.9,95.6,28.4z"/>
		<path id="XMLID_33_" class="st0" d="M117.1,22.3c0-5.2,3-8.2,7.3-8.2c4.4,0,7.3,3,7.3,8.2c0,5.2-3,8.4-7.3,8.4
			C120.1,30.7,117.1,27.6,117.1,22.3z M127.9,22.3c0-3.1-1.3-4.9-3.4-4.9s-3.4,1.8-3.4,4.9c0,3.1,1.3,5.1,3.4,5.1
			S127.9,25.4,127.9,22.3z"/>
		<path id="XMLID_36_" class="st0" d="M135.2,14.4h10.2v3.2H139v3.5h5.5v3.2H139v6.1h-3.8V14.4z"/>
	</g>
	<path id="XMLID_2_" class="st1" d="M153.8,41.3c3.6,0,6.4-2.9,6.4-6.4c0-3.6-2.9-6.4-6.4-6.4c-3.6,0-6.4,2.9-6.4,6.4
		C147.3,38.5,150.2,41.3,153.8,41.3"/>
</g>
<g id="abstände" class="st2">
	<path id="XMLID_17_" class="st3" d="M40.5,36.8c0-3.6-2.9-6.4-6.4-6.4c-3.6,0-6.4,2.9-6.4,6.4"/>
	<path id="XMLID_7_" class="st3" d="M6.6,90.6c3.6,0,6.4-2.9,6.4-6.4c0-3.6-2.9-6.4-6.4-6.4c-3.6,0-6.4,2.9-6.4,6.4
		C0.2,87.7,3,90.6,6.6,90.6"/>
	<path id="XMLID_24_" class="st3" d="M6.6,13.9c3.6,0,6.4-2.9,6.4-6.4C13,3.9,10.1,1,6.6,1C3,1,0.2,3.9,0.2,7.4
		C0.2,11,3,13.9,6.6,13.9"/>
	<path id="XMLID_23_" class="st3" d="M166.6,13.9c3.6,0,6.4-2.9,6.4-6.4c0-3.6-2.9-6.4-6.4-6.4c-3.6,0-6.4,2.9-6.4,6.4
		C160.2,11,163.1,13.9,166.6,13.9"/>
	<path id="XMLID_11_" class="st3" d="M166.6,90.6c3.6,0,6.4-2.9,6.4-6.4c0-3.6-2.9-6.4-6.4-6.4c-3.6,0-6.4,2.9-6.4,6.4
		C160.2,87.7,163.1,90.6,166.6,90.6"/>
</g>
</svg>
