<?xml version="1.0" encoding="UTF-8"?>
<svg width="147px" height="54px" viewBox="0 0 147 54" version="1.1" xmlns="http://www.w3.org/2000/svg" xmlns:xlink="http://www.w3.org/1999/xlink">
    <!-- Generator: Sketch 53.2 (72643) - https://sketchapp.com -->
    <title>logo</title>
    <desc>Created with Sketch.</desc>
    <g id="Page-1" stroke="none" stroke-width="1" fill="none" fill-rule="evenodd">
        <g id="Artboard" transform="translate(-23.000000, -26.000000)">
            <g id="logo" transform="translate(20.000000, 20.000000)">
                <text id="Sounds-of" opacity="0.800000012" font-family="Helvetica" font-size="15" font-weight="normal" fill="#000000">
                    <tspan x="76.6666667" y="22.6666667">Sounds of</tspan>
                </text>
                <path d="M50.3666667,58.5933333 C51.5207465,54.2584968 52.8366593,49.782986 54.3144444,45.1666667 C55.7922296,40.5503473 57.2207338,36.4548327 58.6,32.88 L64.8066667,32.88 C66.1859328,36.4548327 67.6144371,40.5503473 69.0922222,45.1666667 C70.5700074,49.782986 71.8859202,54.2584968 73.04,58.5933333 L69.1977778,58.8888889 C68.4096257,55.7644288 67.6637072,52.9496422 66.96,50.4444444 L56.4044444,50.4444444 C55.5599958,53.3718665 54.8281512,56.1866532 54.2088889,58.8888889 L50.3666667,58.5933333 Z M66.0311111,47.2777778 C64.5674001,42.3236789 63.4133376,38.6644563 62.5688889,36.3 L60.8377778,36.3 C59.8244394,39.1711255 58.6563029,42.8303481 57.3333333,47.2777778 L66.0311111,47.2777778 Z M81.1444444,32.88 L84.7333333,32.88 L84.7333333,58.8888889 L81.1444444,58.8888889 L81.1444444,32.88 Z M94.5266667,33.5555556 C97.0600127,32.8237 99.4948031,32.4577778 101.831111,32.4577778 C105.180757,32.4577778 107.756287,33.1896223 109.557778,34.6533333 C111.359268,36.1170444 112.26,38.312578 112.26,41.24 C112.26,44.4207566 111.366305,46.7711035 109.578889,48.2911111 C107.791473,49.8111187 104.983723,50.5711111 101.155556,50.5711111 L98.1155556,50.5711111 L98.1155556,58.8888889 L94.5266667,58.8888889 L94.5266667,33.5555556 Z M100.733333,47.3622222 C103.688904,47.3622222 105.856289,47.1792611 107.235556,46.8133333 C108.164449,45.5466603 108.628889,43.7311229 108.628889,41.3666667 C108.628889,39.3399899 108.030747,37.8903747 106.834444,37.0177778 C105.638142,36.1451808 103.956307,35.7088889 101.788889,35.7088889 C100.240733,35.7088889 99.0163008,35.8214804 98.1155556,36.0466667 L98.1155556,47.3622222 L100.733333,47.3622222 Z M129.062222,59.2266667 C126.247393,59.2266667 124.05186,58.9100032 122.475556,58.2766667 C120.899251,57.6433302 120.111111,56.5385264 120.111111,54.9622222 L120.111111,32.88 L136.704444,32.88 L136.704444,36.1311111 L123.657778,36.1311111 L123.657778,44.3222222 L135.48,44.3222222 L135.48,47.4888889 L123.657778,47.4888889 L123.657778,55.5533333 C125.346675,55.8348162 127.19036,55.9755556 129.188889,55.9755556 C131.862976,55.9755556 134.255545,55.7222248 136.366667,55.2155556 L137.168889,58.34 C135.17036,58.9311141 132.468165,59.2266667 129.062222,59.2266667 Z M146.328889,32.88 L149.917778,32.88 L149.917778,58.8888889 L146.328889,58.8888889 L146.328889,32.88 Z" id="AIPEI" fill="#000000" fill-rule="nonzero"></path>
                <g id="Group" transform="translate(33.333333, 22.222222) rotate(-18.000000) translate(-33.333333, -22.222222) translate(3.333333, 8.888889)" stroke="#000000" stroke-width="3.2">
                    <path d="M13.3333333,26.6666667 C17.862272,22.2222222 23.2326424,20 29.4444444,20 C35.6562465,20 41.0266169,22.2222222 45.5555556,26.6666667" id="Path"></path>
                    <path d="M6.66666667,21.1111111 C13.0696489,13.7037037 20.6622415,10 29.4444444,10 C38.2266474,10 45.81924,13.7037037 52.2222222,21.1111111" id="Path" opacity="0.600000024"></path>
                    <path d="M0,14.4444444 C8.43319616,4.81481481 18.4331962,3.41015261e-16 30,0 C41.5668038,0 51.5668038,4.81481481 60,14.4444444" id="Path" opacity="0.200000003"></path>
                </g>
                <path d="M37.2222222,59.35727 L37.2222222,28.8356895" id="Path-2" stroke="#000000" stroke-width="3.2"></path>
            </g>
        </g>
    </g>
</svg>