<?xml version="1.0" encoding="UTF-8"?>
<svg width="134px" height="49px" viewBox="0 0 134 49" version="1.1" xmlns="http://www.w3.org/2000/svg" xmlns:xlink="http://www.w3.org/1999/xlink">
    <!-- Generator: Sketch 53.2 (72643) - https://sketchapp.com -->
    <title>logo</title>
    <desc>Created with Sketch.</desc>
    <g id="Page-1" stroke="none" stroke-width="1" fill="none" fill-rule="evenodd">
        <g id="logo" transform="translate(-3.000000, -5.000000)">
            <text id="Sounds-of" opacity="0.800000012" font-family="Helvetica" font-size="15" font-weight="normal" fill="#FFFFFF">
                <tspan x="69" y="21">Sounds of</tspan>
            </text>
            <path d="M45.33,52.734 C46.3686719,48.8326472 47.5529933,44.8046874 48.883,40.65 C50.2130066,36.4953126 51.4986605,32.8093494 52.74,29.592 L58.326,29.592 C59.5673395,32.8093494 60.8529933,36.4953126 62.183,40.65 C63.5130066,44.8046874 64.6973281,48.8326472 65.736,52.734 L62.278,53 C61.5686631,50.1879859 60.8973365,47.6546779 60.264,45.4 L50.764,45.4 C50.0039962,48.0346798 49.3453361,50.5679878 48.788,53 L45.33,52.734 Z M59.428,42.55 C58.1106601,38.091311 57.0720038,34.7980106 56.312,32.67 L54.754,32.67 C53.8419954,35.2540129 52.7906726,38.5473133 51.6,42.55 L59.428,42.55 Z M73.03,29.592 L76.26,29.592 L76.26,53 L73.03,53 L73.03,29.592 Z M85.074,30.2 C87.3540114,29.54133 89.5453228,29.212 91.648,29.212 C94.6626817,29.212 96.9806586,29.8706601 98.602,31.188 C100.223341,32.5053399 101.034,34.4813202 101.034,37.116 C101.034,39.978681 100.229675,42.0939932 98.621,43.462 C97.0123253,44.8300068 94.4853506,45.514 91.04,45.514 L88.304,45.514 L88.304,53 L85.074,53 L85.074,30.2 Z M90.66,42.626 C93.3200133,42.626 95.2706605,42.461335 96.512,42.132 C97.3480042,40.9919943 97.766,39.3580106 97.766,37.23 C97.766,35.4059909 97.227672,34.1013373 96.151,33.316 C95.0743279,32.5306627 93.5606764,32.138 91.61,32.138 C90.2166597,32.138 89.1146707,32.2393323 88.304,32.442 L88.304,42.626 L90.66,42.626 Z M116.156,53.304 C113.622654,53.304 111.646674,53.0190028 110.228,52.449 C108.809326,51.8789971 108.1,50.8846738 108.1,49.466 L108.1,29.592 L123.034,29.592 L123.034,32.518 L111.292,32.518 L111.292,39.89 L121.932,39.89 L121.932,42.74 L111.292,42.74 L111.292,49.998 C112.812008,50.2513346 114.471324,50.378 116.27,50.378 C118.676679,50.378 120.82999,50.1500023 122.73,49.694 L123.452,52.506 C121.653324,53.0380027 119.221349,53.304 116.156,53.304 Z M131.696,29.592 L134.926,29.592 L134.926,53 L131.696,53 L131.696,29.592 Z" id="AIPEI" fill="#FFFFFF" fill-rule="nonzero"></path>
            <g id="Group" transform="translate(30.000000, 20.000000) rotate(-18.000000) translate(-30.000000, -20.000000) translate(3.000000, 8.000000)" stroke="#FFFFFF" stroke-width="3.2">
                <path d="M12,24 C16.0760448,20 20.9093781,18 26.5,18 C32.0906219,18 36.9239552,20 41,24" id="Path"></path>
                <path d="M6,19 C11.762684,12.3333333 18.5960174,9 26.5,9 C34.4039826,9 41.237316,12.3333333 47,19" id="Path" opacity="0.600000024"></path>
                <path d="M0,13 C7.58987655,4.33333333 16.5898765,3.06913735e-16 27,0 C37.4101235,0 46.4101235,4.33333333 54,13" id="Path" opacity="0.200000003"></path>
            </g>
            <path d="M33.5,53.421543 L33.5,25.9521205" id="Path-2" stroke="#FFFFFF" stroke-width="3.2"></path>
        </g>
    </g>
</svg>