<svg xmlns="http://www.w3.org/2000/svg" viewBox="0 0 145.8038 88.7412"><defs><style>.cls-1{fill:#646978;}.cls-2{fill:#ec4667;}</style></defs><title>Element 1</title><g id="Ebene_2" data-name="Ebene 2"><g id="Lgo"><path class="cls-1" d="M63.28,26.4624v5.22H35.6084v2.36h21.88v4.9336H5.7915V34.042H27.0278v-2.36H0v-5.22H27.0278V22.8872h8.5806v3.5752ZM35.6084,82.4492H62.8506v5.72H.5v-5.72H27.0278V80.1611H7.436V75.1558H27.0278V73.0825c-12.227.2857-14.372.5005-15.9448,1.001-.2861-1.144-1.144-3.79-1.7163-5.2915a16.6107,16.6107,0,0,0,3.7183-.9292,40.86,40.86,0,0,0,4.8623-2.0737H8.2227V64.5732H.7866V53.9194H62.4219V64.5732H54.4136V59.2109H8.3657v2.0733H54.1274v4.5049H49.0508a67.3894,67.3894,0,0,1,7.9365,5.5058L52.34,75.1558h4.2188v5.0053h-20.95Zm19.6631-41.4V51.8462H8.3657V41.0493Zm-8.3657,4.147H16.16v2.5024H46.9058ZM27.1709,65.7891c-1.6445,1.0009-3.2178,1.9306-4.79,2.7172L41.9722,68.22c-1.3589-.7866-2.7173-1.5014-3.8614-2.145l.3575-.2861Zm8.4375,9.3667H51.625c-.8584-.7867-2.0024-1.7159-3.2178-2.6455l-12.7988.3574Z"/><path class="cls-1" d="M100.8159,69.0781l1.5015,7.5791c-10.0816,4.3618-21.0933,8.7237-29.53,12.084l-3.79-8.7231h-.0713c4.8623-1.5015,11.7265-3.8614,19.02-6.3638V48.271H71.4282V39.7622H87.9453V24.0312H96.812V70.5083Zm23.31,10.1533c2.6455,0,3.0747-3.36,3.5034-16.16a25.4585,25.4585,0,0,0,8.1514,4.0044c-.7867,14.8008-2.7886,20.45-10.8682,20.45h-8.5088c-7.8657,0-10.2251-3.003-10.2251-12.8706V24.103h8.8662V39.69H133.707v8.4375H115.0449V74.7271c0,3.8608.3574,4.5043,2.7173,4.5043Z"/><path class="cls-1" d="M3.2168,14.6318,5.44,11.9253a6.6178,6.6178,0,0,0,3.9824,1.6724c1.4521,0,2.1343-.55,2.1343-1.43,0-.9463-.9019-1.2539-2.31-1.8482l-2.09-.88A4.7942,4.7942,0,0,1,3.833,4.9507C3.833,2.2,6.2974,0,9.7739,0a7.6185,7.6185,0,0,1,5.3247,2.1562l-1.958,2.4644A5.3232,5.3232,0,0,0,9.7739,3.3662c-1.21,0-1.9585.4844-1.9585,1.3643,0,.9023,1.0342,1.2544,2.4868,1.8261l2.0459.8145a4.5254,4.5254,0,0,1,3.2349,4.4883c0,2.7285-2.2886,5.1269-6.249,5.1269A9.1613,9.1613,0,0,1,3.2168,14.6318Z"/><path class="cls-1" d="M18.4409,8.4048C18.4409,3.0361,21.4775,0,25.9443,0s7.503,3.0581,7.503,8.4048c0,5.3691-3.0367,8.5815-7.503,8.5815S18.4409,13.7739,18.4409,8.4048Zm11.0015,0c0-3.168-1.3418-5.0386-3.4981-5.0386s-3.4765,1.8706-3.4765,5.0386c0,3.1909,1.32,5.1929,3.4765,5.1929S29.4424,11.5957,29.4424,8.4048Z"/><path class="cls-1" d="M36.833,8.9771V.3081H40.75V9.395c0,3.1026.9243,4.2027,2.7285,4.2027,1.7823,0,2.7725-1.1,2.7725-4.2027V.3081h3.7847v8.669c0,5.5229-2.2007,8.0092-6.5572,8.0092C39.1,16.9863,36.833,14.5,36.833,8.9771Z"/><path class="cls-1" d="M54.1465.3081h4.0049l4.07,7.833,1.6064,3.63h.11A51.69,51.69,0,0,1,63.41,5.7207V.3081h3.74v16.37H63.146L59.0972,8.7793l-1.606-3.5869h-.11c.1758,1.8266.5059,4.0708.5059,6.0513v5.4345H54.1465Z"/><path class="cls-1" d="M71.812.3081h4.709c4.9946,0,8.2949,2.398,8.2949,8.0967s-3.3,8.2734-8.0752,8.2734H71.812ZM76.2788,13.51c2.6406,0,4.5108-1.21,4.5108-5.105s-1.87-4.9727-4.5108-4.9727H75.751V13.51Z"/><path class="cls-1" d="M87.2559,14.6318l2.2226-2.7065a6.618,6.618,0,0,0,3.9824,1.6724c1.4522,0,2.1343-.55,2.1343-1.43,0-.9463-.9018-1.2539-2.31-1.8482l-2.09-.88a4.7941,4.7941,0,0,1-3.3227-4.4883C87.8721,2.2,90.3364,0,93.813,0a7.6187,7.6187,0,0,1,5.3247,2.1562L97.18,4.6206A5.3232,5.3232,0,0,0,93.813,3.3662c-1.21,0-1.9585.4844-1.9585,1.3643,0,.9023,1.0342,1.2544,2.4868,1.8261l2.0459.8145a4.5255,4.5255,0,0,1,3.2349,4.4883c0,2.7285-2.2886,5.1269-6.2491,5.1269A9.1612,9.1612,0,0,1,87.2559,14.6318Z"/><path class="cls-1" d="M109.2773,8.4048C109.2773,3.0361,112.314,0,116.7808,0s7.5029,3.0581,7.5029,8.4048c0,5.3691-3.0366,8.5815-7.5029,8.5815S109.2773,13.7739,109.2773,8.4048Zm11.002,0c0-3.168-1.3423-5.0386-3.4985-5.0386s-3.4766,1.8706-3.4766,5.0386c0,3.1909,1.32,5.1929,3.4766,5.1929S120.2793,11.5957,120.2793,8.4048Z"/><path class="cls-1" d="M127.7573.3081H138.209V3.5645h-6.5127V7.1509h5.5884v3.2783h-5.5884v6.249h-3.939Z"/><path class="cls-2" d="M139.3658,33.6837a6.438,6.438,0,1,0-6.438-6.4379,6.4381,6.4381,0,0,0,6.438,6.4379"/></g></g></svg>