<?xml version="1.0" encoding="UTF-8"?>
<svg width="48px" height="24px" viewBox="0 0 48 24" version="1.1" xmlns="http://www.w3.org/2000/svg" xmlns:xlink="http://www.w3.org/1999/xlink">
    <!-- Generator: Sketch 55.1 (78136) - https://sketchapp.com -->
    <title>daymode</title>
    <desc>Created with Sketch.</desc>
    <g id="Page-1" stroke="none" stroke-width="1" fill="none" fill-rule="evenodd">
        <g id="daymode" transform="translate(24.000000, 12.000000) scale(-1, 1) translate(-24.000000, -12.000000) ">
            <path d="M29.3067156,2 C26.1072308,4.13692587 24,7.78099856 24,11.9172414 L24,12.0827586 C24,16.2190014 26.1072308,19.8630741 29.3067156,22 L10,22 C4.4771525,22 6.76353751e-16,17.5228475 0,12 C-6.76353751e-16,6.4771525 4.4771525,2 10,2 L29.3067156,2 Z" id="Combined-Shape" fill="#646978" opacity="0.5"></path>
            <path d="M35.9172414,0 L36.0827586,0 C42.6644693,-1.20904064e-15 48,5.33553071 48,11.9172414 L48,12.0827586 C48,18.6644693 42.6644693,24 36.0827586,24 L35.9172414,24 C29.3355307,24 24,18.6644693 24,12.0827586 L24,11.9172414 C24,5.33553071 29.3355307,1.20904064e-15 35.9172414,0 Z M36,17.6682692 C35.6322115,17.6682692 35.3336538,17.9668269 35.3336538,18.3346154 L35.3336538,20.3336538 C35.3336538,20.7014423 35.6322115,21 36,21 C36.3677885,21 36.6663462,20.7014423 36.6663462,20.3336538 L36.6663462,18.3346154 C36.6663462,17.9668269 36.3677885,17.6682692 36,17.6682692 Z M36,3 C35.6322115,3 35.3336538,3.29855769 35.3336538,3.66634615 L35.3336538,5.66538462 C35.3336538,6.03317308 35.6322115,6.33173077 36,6.33173077 C36.3677885,6.33173077 36.6663462,6.03317308 36.6663462,5.66538462 L36.6663462,3.66634615 C36.6663462,3.29855769 36.3677885,3 36,3 Z M30.3317308,12 C30.3317308,11.6322115 30.0331731,11.3336538 29.6653846,11.3336538 L27.6663462,11.3336538 C27.2985577,11.3336538 27,11.6322115 27,12 C27,12.3677885 27.2985577,12.6663462 27.6663462,12.6663462 L29.6653846,12.6663462 C30.0331731,12.6663462 30.3317308,12.3677885 30.3317308,12 Z M44.3336538,11.3336538 L42.3346154,11.3336538 C41.9668269,11.3336538 41.6682692,11.6322115 41.6682692,12 C41.6682692,12.3677885 41.9668269,12.6663462 42.3346154,12.6663462 L44.3336538,12.6663462 C44.7014423,12.6663462 45,12.3677885 45,12 C45,11.6322115 44.7014423,11.3336538 44.3336538,11.3336538 Z M31.5216346,15.8120192 C31.3442308,15.8120192 31.1754808,15.88125 31.05,16.0067308 L29.6350962,17.4216346 C29.5096154,17.5471154 29.4403846,17.7158654 29.4403846,17.8932692 C29.4403846,18.0706731 29.5096154,18.2394231 29.6350962,18.3649038 C29.7605769,18.4903846 29.9293269,18.5596154 30.1067308,18.5596154 C30.2841346,18.5596154 30.4528846,18.4903846 30.5783654,18.3649038 L31.9932692,16.95 C32.2528846,16.6903846 32.2528846,16.2663462 31.9932692,16.0067308 C31.8677885,15.88125 31.6990385,15.8120192 31.5216346,15.8120192 Z M40.4783654,8.18798077 C40.6557692,8.18798077 40.8245192,8.11875 40.95,7.99326923 L42.3649038,6.57836538 C42.4903846,6.45288462 42.5596154,6.28413462 42.5596154,6.10673077 C42.5596154,5.92932692 42.4903846,5.76057692 42.3649038,5.63509615 C42.2394231,5.50961538 42.0706731,5.44038462 41.8932692,5.44038462 C41.7158654,5.44038462 41.5471154,5.50961538 41.4216346,5.63509615 L40.0067308,7.05 C39.88125,7.17548077 39.8120192,7.34423077 39.8120192,7.52163462 C39.8120192,7.69903846 39.88125,7.86778846 40.0067308,7.99326923 C40.1322115,8.11875 40.3009615,8.18798077 40.4783654,8.18798077 Z M30.5783654,5.63509615 C30.4528846,5.50961538 30.2841346,5.44038462 30.1067308,5.44038462 C29.9293269,5.44038462 29.7605769,5.50961538 29.6350962,5.63509615 C29.5096154,5.76057692 29.4403846,5.92932692 29.4403846,6.10673077 C29.4403846,6.28413462 29.5096154,6.45288462 29.6350962,6.57836538 L31.05,7.99326923 C31.1754808,8.11875 31.3442308,8.18798077 31.5216346,8.18798077 C31.6990385,8.18798077 31.8677885,8.11875 31.9932692,7.99326923 C32.11875,7.86778846 32.1879808,7.69903846 32.1879808,7.52163462 C32.1879808,7.34423077 32.11875,7.17548077 31.9932692,7.05 L30.5783654,5.63509615 Z M40.95,16.0067308 C40.8245192,15.88125 40.6557692,15.8120192 40.4783654,15.8120192 C40.3009615,15.8120192 40.1322115,15.88125 40.0067308,16.0067308 C39.7471154,16.2663462 39.7471154,16.6903846 40.0067308,16.95 L41.4216346,18.3649038 C41.5471154,18.4903846 41.7158654,18.5596154 41.8932692,18.5596154 C42.0706731,18.5596154 42.2394231,18.4903846 42.3649038,18.3649038 C42.4903846,18.2394231 42.5596154,18.0706731 42.5596154,17.8932692 C42.5596154,17.7158654 42.4903846,17.5471154 42.3649038,17.4216346 L40.95,16.0067308 Z M36,7.84615385 C33.7110577,7.84615385 31.8461538,9.71105769 31.8461538,12 C31.8461538,14.2889423 33.7110577,16.1538462 36,16.1538462 C38.2889423,16.1538462 40.1538462,14.2889423 40.1538462,12 C40.1538462,9.71105769 38.2889423,7.84615385 36,7.84615385 Z" id="Combined-Shape" fill="#686D7C"></path>
            <path d="M16.2145122,15.069232 C16.1239021,15.0723565 16.033292,15.075481 15.9426819,15.075481 C14.446053,15.075481 13.0369098,14.4849531 11.9808335,13.4070054 C10.9216327,12.3321822 10.3404783,10.904292 10.3404783,9.38266729 C10.3404783,8.51718464 10.5310719,7.67982236 10.8872633,6.92369672 C10.9841224,6.71748063 11.1778406,6.40503202 11.3121935,6.19256697 C11.3715587,6.10195687 11.296571,5.9832264 11.1903385,6.00197331 C11.0028693,6.03009369 10.7154166,6.09258341 10.3248558,6.21443837 C7.89400564,6.98618644 6.17241379,9.27331028 6.17241379,11.9697418 C6.17241379,15.300444 8.83135148,18 12.1120619,18 C13.9242638,18 15.5489966,17.1751357 16.6394423,15.872225 C16.8269114,15.647262 16.9987582,15.4410459 17.151858,15.191087 C17.2080988,15.0973524 17.1299866,14.9817464 17.0237541,15.0004933 C16.7581728,15.0536096 16.4894669,15.0567341 16.2145122,15.069232 Z" id="Path" fill="#686D7C" fill-rule="nonzero" transform="translate(11.671524, 12.000000) scale(-1, 1) translate(-11.671524, -12.000000) "></path>
            <g id="_ionicons_svg_ios-sunny" transform="translate(30.000000, 6.000000)"></g>
        </g>
    </g>
</svg>