<?xml version="1.0" encoding="UTF-8"?>
<svg width="48px" height="24px" viewBox="0 0 48 24" version="1.1" xmlns="http://www.w3.org/2000/svg" xmlns:xlink="http://www.w3.org/1999/xlink">
    <!-- Generator: Sketch 55.1 (78136) - https://sketchapp.com -->
    <title>nightmode</title>
    <desc>Created with Sketch.</desc>
    <g id="Page-1" stroke="none" stroke-width="1" fill="none" fill-rule="evenodd">
        <g id="nightmode" transform="translate(24.000000, 12.000000) scale(-1, 1) translate(-24.000000, -12.000000) " fill="#FFFFFF">
            <path d="M18.6932844,2 L38.0689655,2 C43.5537244,2 48,6.44627559 48,11.9310345 L48,12.0689655 C48,17.5537244 43.5537244,22 38.0689655,22 L18.6932844,22 C21.8927692,19.8630741 24,16.2190014 24,12.0827586 L24,11.9172414 C24,7.78099856 21.8927692,4.13692587 18.6932844,2 Z M-1.42108547e-14,12.0689655 L-1.42108547e-14,11.9310345 L-1.42108547e-14,12.0689655 Z" id="Combined-Shape" opacity="0.300000012"></path>
            <path d="M11.9172414,0 L12.0827586,0 C18.6644693,5.67316203e-16 24,5.33553071 24,11.9172414 L24,12.0827586 C24,18.6644693 18.6644693,24 12.0827586,24 L11.9172414,24 C5.33553071,24 2.58238393e-15,18.6644693 0,12.0827586 L0,11.9172414 C9.70329748e-16,5.33553071 5.33553071,2.98539748e-15 11.9172414,0 Z M5.47063274,16.0923094 C5.09730042,16.0756454 4.73245293,16.0714795 4.37184785,16.0006578 C4.22760582,15.9756619 4.12154551,16.1298032 4.19790893,16.2547826 C4.40578716,16.5880612 4.63911985,16.8630159 4.89366462,17.1629666 C6.37426664,18.9001809 8.58032124,20 11.0409206,20 C15.4954539,20 19.1057471,16.400592 19.1057471,11.9596557 C19.1057471,8.3644137 16.7681777,5.31491525 13.4675807,4.28591783 C12.9372791,4.12344455 12.5469771,4.04012492 12.2924323,4.00263108 C12.1481903,3.9776352 12.0463724,4.13594249 12.1269783,4.25675596 C12.309402,4.5400427 12.5724316,4.95664085 12.7039464,5.23159562 C13.1875814,6.23976314 13.4463686,7.35624618 13.4463686,8.51022305 C13.4463686,10.539056 12.6572798,12.4429096 11.2191019,13.8760072 C9.78516645,15.3132708 7.87183832,16.1006413 5.83972265,16.1006413 C5.71669268,16.1006413 5.59366271,16.0964753 5.47063274,16.0923094 Z" id="Combined-Shape"></path>
            <path d="M36,15.7788462 C35.7548077,15.7788462 35.5557692,15.9778846 35.5557692,16.2230769 L35.5557692,17.5557692 C35.5557692,17.8009615 35.7548077,18 36,18 C36.2451923,18 36.4442308,17.8009615 36.4442308,17.5557692 L36.4442308,16.2230769 C36.4442308,15.9778846 36.2451923,15.7788462 36,15.7788462 L36,15.7788462 Z M36,6 C35.7548077,6 35.5557692,6.19903846 35.5557692,6.44423077 L35.5557692,7.77692308 C35.5557692,8.02211538 35.7548077,8.22115385 36,8.22115385 C36.2451923,8.22115385 36.4442308,8.02211538 36.4442308,7.77692308 L36.4442308,6.44423077 C36.4442308,6.19903846 36.2451923,6 36,6 L36,6 Z M32.2211538,12 C32.2211538,11.7548077 32.0221154,11.5557692 31.7769231,11.5557692 L30.4442308,11.5557692 C30.1990385,11.5557692 30,11.7548077 30,12 C30,12.2451923 30.1990385,12.4442308 30.4442308,12.4442308 L31.7769231,12.4442308 C32.0221154,12.4442308 32.2211538,12.2451923 32.2211538,12 L32.2211538,12 Z M41.5557692,11.5557692 L40.2230769,11.5557692 C39.9778846,11.5557692 39.7788462,11.7548077 39.7788462,12 C39.7788462,12.2451923 39.9778846,12.4442308 40.2230769,12.4442308 L41.5557692,12.4442308 C41.8009615,12.4442308 42,12.2451923 42,12 C42,11.7548077 41.8009615,11.5557692 41.5557692,11.5557692 L41.5557692,11.5557692 Z M33.0144231,14.5413462 C32.8961538,14.5413462 32.7836538,14.5875 32.7,14.6711538 L31.7567308,15.6144231 C31.6730769,15.6980769 31.6269231,15.8105769 31.6269231,15.9288462 C31.6269231,16.0471154 31.6730769,16.1596154 31.7567308,16.2432692 C31.8403846,16.3269231 31.9528846,16.3730769 32.0711538,16.3730769 C32.1894231,16.3730769 32.3019231,16.3269231 32.3855769,16.2432692 L33.3288462,15.3 C33.5019231,15.1269231 33.5019231,14.8442308 33.3288462,14.6711538 C33.2451923,14.5875 33.1326923,14.5413462 33.0144231,14.5413462 L33.0144231,14.5413462 Z M38.9855769,9.45865385 C39.1038462,9.45865385 39.2163462,9.4125 39.3,9.32884615 L40.2432692,8.38557692 C40.3269231,8.30192308 40.3730769,8.18942308 40.3730769,8.07115385 C40.3730769,7.95288462 40.3269231,7.84038462 40.2432692,7.75673077 C40.1596154,7.67307692 40.0471154,7.62692308 39.9288462,7.62692308 C39.8105769,7.62692308 39.6980769,7.67307692 39.6144231,7.75673077 L38.6711538,8.7 C38.5875,8.78365385 38.5413462,8.89615385 38.5413462,9.01442308 C38.5413462,9.13269231 38.5875,9.24519231 38.6711538,9.32884615 C38.7548077,9.4125 38.8673077,9.45865385 38.9855769,9.45865385 L38.9855769,9.45865385 Z M32.3855769,7.75673077 C32.3019231,7.67307692 32.1894231,7.62692308 32.0711538,7.62692308 C31.9528846,7.62692308 31.8403846,7.67307692 31.7567308,7.75673077 C31.6730769,7.84038462 31.6269231,7.95288462 31.6269231,8.07115385 C31.6269231,8.18942308 31.6730769,8.30192308 31.7567308,8.38557692 L32.7,9.32884615 C32.7836538,9.4125 32.8961538,9.45865385 33.0144231,9.45865385 C33.1326923,9.45865385 33.2451923,9.4125 33.3288462,9.32884615 C33.4125,9.24519231 33.4586538,9.13269231 33.4586538,9.01442308 C33.4586538,8.89615385 33.4125,8.78365385 33.3288462,8.7 L32.3855769,7.75673077 L32.3855769,7.75673077 Z M39.3,14.6711538 C39.2163462,14.5875 39.1038462,14.5413462 38.9855769,14.5413462 C38.8673077,14.5413462 38.7548077,14.5875 38.6711538,14.6711538 C38.4980769,14.8442308 38.4980769,15.1269231 38.6711538,15.3 L39.6144231,16.2432692 C39.6980769,16.3269231 39.8105769,16.3730769 39.9288462,16.3730769 C40.0471154,16.3730769 40.1596154,16.3269231 40.2432692,16.2432692 C40.3269231,16.1596154 40.3730769,16.0471154 40.3730769,15.9288462 C40.3730769,15.8105769 40.3269231,15.6980769 40.2432692,15.6144231 L39.3,14.6711538 L39.3,14.6711538 Z M36,9.23076923 C34.4740385,9.23076923 33.2307692,10.4740385 33.2307692,12 C33.2307692,13.5259615 34.4740385,14.7692308 36,14.7692308 C37.5259615,14.7692308 38.7692308,13.5259615 38.7692308,12 C38.7692308,10.4740385 37.5259615,9.23076923 36,9.23076923 Z" id="Shape" fill-rule="nonzero"></path>
        </g>
    </g>
</svg>